# xmcd
#
# Track frame offsets:
#	150
#	13909
#	29138
#	39746
#	51587
#	64351
#	78728
#	92373
#	105747
#	120129
#	133149
#	148294
#	160491
#	175702
#	190726
#	204565
#	218182
#	231545
#	243701
#	257441
#	270089
#	282982
#	297407
#
# Disc length: 4141 seconds
#
# Revision: 909665582
# Processed by: cddbd v1.5.2PL0 Copyright (c) Steve Scherf et al.
# Submitted via: EZCDAudioConverter 8.3.2.1
#
DISCID=68102b17
DTITLE=JIMMIE RODGERS - CLASSIC SIDES 1929 - 1931 [CD3]
DYEAR=1900
DGENRE=Country
TTITLE0=BLUE YODEL #11
TTITLE1=A DRUNKARD'S CHILD
TTITLE2=THAT'S WHY I'M BLUE
TTITLE3=WHY DID YOU GIVE ME YOUR LOVE
TTITLE4=MY BLUE EYED JANE
TTITLE5=WHY SHOULD I BE LONELY
TTITLE6=MOONLIGHT AND SKIES
TTITLE7=PISTOL PACKIN' PAPA
TTITLE8=TAKE ME BACK AGAIN
TTITLE9=THOSE GAMBLER'S BLUES
TTITLE10=I'M LONESOME TOO
TTITLE11=THE ONE ROSE
TTITLE12=FOR THE SAKE OF DAYS GONE BY
TTITLE13=JIMMIE'S MEAN MAMA BLUES
TTITLE14=THE MYSTERY NUMBER FIVE
TTITLE15=BLUE YODEL #8
TTITLE16=IN THE JAILHOUSE NOW #2
TTITLE17=BLUE YODEL #9
TTITLE18=TB BLUES
TTITLE19=TRAVELIN' BLUES
TTITLE20=JIMMIE THE KID
TTITLE21=WHY THERE'S A TEAR IN MY EYE
TTITLE22=THE WONDERFUL CITY
EXTD=
EXTT0=
EXTT1=
EXTT2=
EXTT3=
EXTT4=
EXTT5=
EXTT6=
EXTT7=
EXTT8=
EXTT9=
EXTT10=
EXTT11=
EXTT12=
EXTT13=
EXTT14=
EXTT15=
EXTT16=
EXTT17=
EXTT18=
EXTT19=
EXTT20=
EXTT21=
EXTT22=
PLAYORDER=
